# File created by Blade
# Date/Time:  Tue Sep 30 19:35:54 2014
#---------------------------------------------------------
:version 1.10
:name HOM
:units
  mass 1.0
  length 1.000000
  angle deg
:documentation
     Acclaim Skeleton File
:root
   axis xyz
   order TX TY TZ RX RY RZ
   position 0.000000 0.000000 0.000000
   orientation 0 0 0
:bonedata
   begin
      id 1
      name Spine_dum
      direction 0.000000 1.000000 0.000000
      length 3.241213
      axis 0.0 0.0 0.0 xyz
   end
   begin
      id 2
      name LeftUpLeg_dum
      direction 1.000000 0.000000 0.000000
      length 3.434019
      axis 0.0 0.0 0.0 xyz
   end
   begin
      id 3
      name RightUpLeg_dum
      direction -1.000000 0.000000 0.000000
      length 3.434019
      axis 0.0 0.0 0.0 xyz
   end
   begin
      id 4
      name Spine
      direction 0.000000 1.000000 0.000000
      length 0.000000
      axis 0.0 0.0 0.0 xyz
      dof rx ry rz
   end
   begin
      id 5
      name Spine_dum1
      direction 0.000000 1.000000 0.000000
      length 18.382958
      axis 0.0 0.0 0.0 xyz
   end
   begin
      id 6
      name Spine_dum2
      direction 0.000000 1.000000 0.000000
      length 12.828261
      axis 0.0 0.0 0.0 xyz
   end
   begin
      id 7
      name Spine_dum3
      direction 0.000000 1.000000 0.000000
      length 12.828261
      axis 0.0 0.0 0.0 xyz
   end
   begin
      id 8
      name Head
      direction 0.000000 1.000000 0.000000
      length 4.527550
      axis 0.0 0.0 0.0 xyz
      dof rx ry rz
   end
   begin
      id 9
      name LeftShoulder
      direction 1.000000 0.000000 0.000000
      length 7.748055
      axis 0.0 0.0 -90.0 xyz
      dof rx ry rz
   end
   begin
      id 10
      name LeftArm
      direction 1.000000 0.000000 0.000000
      length 10.635614
      axis 0.0 0.0 -90.0 xyz
      dof rx ry rz
   end
   begin
      id 11
      name LeftForeArm
      direction 1.000000 0.000000 0.000000
      length 8.346755
      axis 0.0 0.0 -90.0 xyz
      dof ry rz rx
   end
   begin
      id 12
      name LeftHand
      direction 0.000000 0.000000 0.000000
      length 0.000000
      axis 0.0 0.0 -90.0 xyz
      dof rx ry rz
   end
   begin
      id 13
      name LeftHand_dum1
      direction 0.000000 0.000000 0.000000
      length 0.000000
      axis 0.0 0.0 -90.0 xyz
   end
   begin
      id 14
      name LeftHand_dum2
      direction 1.000000 0.000000 0.000000
      length 3.937000
      axis 0.0 0.0 -90.0 xyz
   end
   begin
      id 15
      name LeftHandThumb1
      direction 0.000000 0.000000 1.000000
      length 3.937000
      axis 0.0 0.0 -90.0 xyz
      dof rx rz ry
   end
   begin
      id 16
      name RightShoulder
      direction -1.000000 0.000000 0.000000
      length 7.748055
      axis 0.0 0.0 90.0 xyz
      dof rx ry rz
   end
   begin
      id 17
      name RightArm
      direction -1.000000 0.000000 0.000000
      length 10.635614
      axis 0.0 0.0 90.0 xyz
      dof rx ry rz
   end
   begin
      id 18
      name RightForeArm
      direction -1.000000 0.000000 0.000000
      length 8.346755
      axis 0.0 0.0 90.0 xyz
      dof ry rz rx
   end
   begin
      id 19
      name RightHand
      direction 0.000000 0.000000 0.000000
      length 0.000000
      axis 0.0 0.0 90.0 xyz
      dof rx ry rz
   end
   begin
      id 20
      name RightHand_dum1
      direction 0.000000 0.000000 0.000000
      length 0.000000
      axis 0.0 0.0 90.0 xyz
   end
   begin
      id 21
      name RightHand_dum2
      direction -1.000000 0.000000 0.000000
      length 3.937000
      axis 0.0 0.0 90.0 xyz
   end
   begin
      id 22
      name RightHandThumb1
      direction 0.000000 0.000000 1.000000
      length 3.937000
      axis 0.0 0.0 90.0 xyz
      dof rx rz ry
   end
   begin
      id 23
      name LeftUpLeg
      direction 0.000000 -1.000000 0.000000
      length 15.713025
      axis 0.0 0.0 0.0 xyz
      dof rx ry rz
   end
   begin
      id 24
      name LeftLeg
      direction 0.000000 -1.000000 0.000000
      length 14.435119
      axis 0.0 0.0 0.0 xyz
      dof rx ry rz
   end
   begin
      id 25
      name LeftFoot
      direction 0.000000 -0.258819 0.965926
      length 4.938895
      axis 15.0 0.0 0.0 xyz
      dof rx ry rz
   end
   begin
      id 26
      name LeftToeBase
      direction 0.000000 0.000000 1.000000
      length 2.952750
      axis 0.0 0.0 0.0 xyz
      dof rx ry rz
   end
   begin
      id 27
      name RightUpLeg
      direction 0.000000 -1.000000 0.000000
      length 15.713025
      axis 0.0 0.0 0.0 xyz
      dof rx ry rz
   end
   begin
      id 28
      name RightLeg
      direction 0.000000 -1.000000 0.000000
      length 14.435119
      axis 0.0 0.0 0.0 xyz
      dof rx ry rz
   end
   begin
      id 29
      name RightFoot
      direction 0.000000 -0.258819 0.965926
      length 4.938895
      axis 15.0 0.0 0.0 xyz
      dof rx ry rz
   end
   begin
      id 30
      name RightToeBase
      direction 0.000000 0.000000 1.000000
      length 2.952750
      axis 0.0 0.0 0.0 xyz
      dof rx ry rz
   end
:hierarchy
   begin
      root Spine_dum LeftUpLeg_dum RightUpLeg_dum
      Spine_dum Spine
      LeftUpLeg_dum LeftUpLeg
      RightUpLeg_dum RightUpLeg
      Spine Spine_dum1 Spine_dum2 Spine_dum3
      Spine_dum1 Head
      Spine_dum2 LeftShoulder
      Spine_dum3 RightShoulder
      LeftShoulder LeftArm
      LeftArm LeftForeArm
      LeftForeArm LeftHand
      LeftHand LeftHand_dum1 LeftHand_dum2
      LeftHand_dum1 LeftHandThumb1
      RightShoulder RightArm
      RightArm RightForeArm
      RightForeArm RightHand
      RightHand RightHand_dum1 RightHand_dum2
      RightHand_dum1 RightHandThumb1
      LeftUpLeg LeftLeg
      LeftLeg LeftFoot
      LeftFoot LeftToeBase
      RightUpLeg RightLeg
      RightLeg RightFoot
      RightFoot RightToeBase
   end

# File created by Blade
# Date/Time:  Tue Sep 23 19:15:59 2014
# Frame Rate: 120.000 fps
#------------------------------------------------------
:FULLY-SPECIFIED
:DEGREES
925
root 0.231634 33.324208 -6.988058 41.865945 -12.661084 -37.670721
Spine -24.584003 -7.898600 34.835052
Head -2.797973 -7.498246 16.862587
LeftShoulder 11.618863 32.255233 41.537984
LeftArm 90.986430 16.023872 -58.987447
LeftForeArm 12.021502 -0.000000 47.124456
LeftHand 54.146118 -0.000000 -11.871192
LeftHandThumb1 -26.253704 0.000000 33.147579
RightShoulder 9.173745 -46.853450 -9.137120
RightArm 72.782347 5.754390 40.786493
RightForeArm 41.652787 -0.000000 19.477507
RightHand 17.487015 -0.000000 15.678057
RightHandThumb1 -24.326973 -0.000000 -32.862282
LeftUpLeg -45.562882 18.378032 25.362398
LeftLeg 31.627654 -0.000000 -0.000000
LeftFoot -14.295157 15.718789 6.053716
LeftToeBase -1.253366 -0.000000 0.000000
RightUpLeg -146.161164 -18.360319 15.341230
RightLeg 115.554003 -0.000000 -0.000000
RightFoot 43.580840 -3.930637 0.823305
RightToeBase 48.160996 -0.000000 -0.000000
926
root 0.234142 33.343074 -6.996384 41.747914 -12.262138 -37.876220
Spine -24.368820 -7.738484 35.018390
Head -3.384015 -7.790829 17.051407
LeftShoulder 11.541833 32.003075 41.553837
LeftArm 91.476868 16.170591 -58.581674
LeftForeArm 10.849245 -0.000000 46.865157
LeftHand 54.121433 -0.000000 -12.173911
LeftHandThumb1 -26.253704 0.000000 33.147579
RightShoulder 9.506204 -47.105828 -9.190615
RightArm 72.598160 6.291927 40.309088
RightForeArm 42.102462 -0.000000 18.289425
RightHand 17.744774 -0.000000 16.329188
RightHandThumb1 -24.326973 -0.000000 -32.862282
LeftUpLeg -45.641538 18.681285 25.548471
LeftLeg 31.633485 -0.000000 -0.000000
LeftFoot -14.573668 15.006854 5.455809
LeftToeBase -0.742034 -0.000000 0.000000
RightUpLeg -145.921748 -18.829426 15.675967
RightLeg 116.037861 -0.000000 -0.000000
RightFoot 43.456389 -3.850117 0.872480
RightToeBase 47.965568 -0.000000 -0.000000
927
root 0.226160 33.367617 -6.992172 41.455711 -11.709745 -38.174277
Spine -24.048902 -7.742832 35.379785
Head -3.925186 -8.076902 17.199443
LeftShoulder 11.517360 31.725535 41.549222
LeftArm 91.839931 16.334185 -58.351750
LeftForeArm 9.516679 -0.000000 46.612193
LeftHand 54.130485 0.000000 -13.066989
LeftHandThumb1 -26.253704 0.000000 33.147579
RightShoulder 9.772582 -47.430229 -9.202287
RightArm 72.356076 6.970699 40.099648
RightForeArm 41.609891 0.000000 17.489813
RightHand 17.660445 0.000000 16.800060
RightHandThumb1 -24.326973 -0.000000 -32.862282
LeftUpLeg -45.521653 18.838224 25.985440
LeftLeg 31.630765 -0.000000 -0.000000
LeftFoot -14.804882 14.325837 4.988170
LeftToeBase -0.258838 -0.000000 0.000000
RightUpLeg -145.470970 -19.454999 16.168935
RightLeg 116.537061 -0.000000 -0.000000
RightFoot 43.286293 -3.739852 1.120913
RightToeBase 47.813052 -0.000000 -0.000000
928
root 0.222605 33.388997 -6.996171 41.255020 -11.261858 -38.347341
Spine -23.820695 -7.698551 35.574054
Head -4.489309 -8.336583 17.380779
LeftShoulder 11.467118 31.458337 41.560671
LeftArm 92.293433 16.471466 -57.999319
LeftForeArm 9.064718 -0.000000 46.345252
LeftHand 54.068184 -0.000000 -12.766652
LeftHandThumb1 -26.253704 0.000000 33.147579
RightShoulder 9.775000 -47.597658 -9.007789
RightArm 72.112535 7.465131 39.722981
RightForeArm 41.541236 -0.000000 16.726482
RightHand 17.440248 -0.000000 17.382183
RightHandThumb1 -24.326973 -0.000000 -32.862282
LeftUpLeg -45.510049 18.951434 26.239608
LeftLeg 31.568492 -0.000000 -0.000000
LeftFoot -14.899943 13.843217 4.678182
LeftToeBase 0.055390 -0.000000 -0.000000
RightUpLeg -145.192494 -19.992858 16.490543
RightLeg 116.984904 -0.000000 -0.000000
RightFoot 43.187657 -3.812478 1.287453
RightToeBase 47.725163 -0.000000 -0.000000
929
root 0.222271 33.412557 -7.008408 41.209771 -10.840921 -38.507333
Spine -23.733807 -7.606170 35.780862
Head -4.992342 -8.597527 17.506872
LeftShoulder 11.434059 31.197666 41.625916
LeftArm 92.655511 16.575073 -57.752389
LeftForeArm 8.332283 -0.000000 46.097163
LeftHand 53.985785 -0.000000 -12.865835
LeftHandThumb1 -26.253704 0.000000 33.147579
RightShoulder 9.745225 -47.640487 -8.818923
RightArm 71.810626 7.829902 39.388483
RightForeArm 41.805203 -0.000000 16.105077
RightHand 17.139900 -0.000000 18.160991
RightHandThumb1 -24.326973 -0.000000 -32.862282
LeftUpLeg -45.645092 19.082030 26.457366
LeftLeg 31.519747 -0.000000 -0.000000
LeftFoot -14.803736 13.383873 4.494926
LeftToeBase -0.065693 -0.000000 0.000000
RightUpLeg -145.070926 -20.425754 16.710257
RightLeg 117.371568 -0.000000 -0.000000
RightFoot 43.287590 -3.809985 1.262220
RightToeBase 47.475659 -0.000000 -0.000000
930
root 0.220387 33.436069 -7.016263 41.141679 -10.421966 -38.668887
Spine -23.636194 -7.485699 35.974355
Head -5.482040 -8.948413 17.600077
LeftShoulder 11.489092 30.885723 41.735254
LeftArm 92.907286 16.689531 -57.631369
LeftForeArm 7.439294 -0.000000 45.849989
LeftHand 54.074289 -0.000000 -13.510427
LeftHandThumb1 -26.253704 0.000000 33.147579
RightShoulder 9.463958 -47.648405 -8.458347
RightArm 71.506936 8.133518 39.084508
RightForeArm 41.936166 0.000000 15.690279
RightHand 16.966615 0.000000 18.826881
RightHandThumb1 -24.326973 -0.000000 -32.862282
LeftUpLeg -45.714217 19.172983 26.666205
LeftLeg 31.375694 -0.000000 -0.000000
LeftFoot -14.610861 13.152568 4.576127
LeftToeBase -0.351189 -0.000000 0.000000
RightUpLeg -144.893816 -20.931445 16.804128
RightLeg 117.725311 -0.000000 -0.000000
RightFoot 43.411174 -3.829160 1.463014
RightToeBase 47.254686 -0.000000 -0.000000
931
root 0.215422 33.459158 -7.022908 41.030362 -9.907707 -38.808143
Spine -23.560030 -7.543704 36.279240
Head -5.966881 -9.186804 17.639753
LeftShoulder 11.469421 30.628802 41.769013
LeftArm 93.174870 16.749570 -57.349250
LeftForeArm 6.771459 -0.000000 45.620241
LeftHand 54.073010 -0.000000 -13.485527
LeftHandThumb1 -26.253704 0.000000 33.147579
RightShoulder 9.165014 -47.469885 -8.150865
RightArm 71.137306 8.317481 39.093441
RightForeArm 41.783398 0.000000 15.645926
RightHand 16.835396 0.000000 19.261963
RightHandThumb1 -24.326973 -0.000000 -32.862282
LeftUpLeg -45.789116 19.106981 26.965548
LeftLeg 31.252212 -0.000000 -0.000000
LeftFoot -14.439165 12.944417 4.611278
LeftToeBase -0.483092 -0.000000 0.000000
RightUpLeg -144.699238 -21.582647 16.924605
RightLeg 118.069084 -0.000000 -0.000000
RightFoot 43.466181 -3.787633 1.627431
RightToeBase 47.266884 -0.000000 -0.000000
932
root 0.207303 33.485525 -7.032653 41.056099 -9.519565 -39.001962
Spine -23.556093 -7.399874 36.519987
Head -6.352555 -9.512112 17.634826
LeftShoulder 11.589261 30.374657 41.882218
LeftArm 93.355465 16.751173 -57.127826
LeftForeArm 5.808689 -0.000000 45.347686
LeftHand 54.178130 -0.000000 -13.961715
LeftHandThumb1 -26.253704 0.000000 33.147579
RightShoulder 8.787550 -47.291448 -7.801153
RightArm 70.724421 8.521384 39.452200
RightForeArm 41.423740 -0.000000 15.990661
RightHand 16.742972 -0.000000 19.623492
RightHandThumb1 -24.326973 -0.000000 -32.862282
LeftUpLeg -45.895281 19.183612 27.237374
LeftLeg 31.107606 -0.000000 -0.000000
LeftFoot -14.243444 12.740622 4.622653
LeftToeBase -0.668198 -0.000000 0.000000
RightUpLeg -144.568154 -22.050808 16.946659
RightLeg 118.337075 -0.000000 -0.000000
RightFoot 43.626368 -3.906714 1.714502
RightToeBase 47.392018 -0.000000 -0.000000
933
root 0.195219 33.509974 -7.041925 41.012508 -9.098086 -39.152790
Spine -23.546479 -7.421307 36.787323
Head -6.670918 -9.737574 17.565133
LeftShoulder 11.668834 30.185038 41.973599
LeftArm 93.494470 16.688693 -56.874872
LeftForeArm 4.816113 -0.000000 45.049636
LeftHand 54.571480 -0.000000 -14.746310
LeftHandThumb1 -26.253704 0.000000 33.147579
RightShoulder 8.523449 -47.097808 -7.583097
RightArm 70.301591 8.817189 40.297117
RightForeArm 40.172500 -0.000000 16.791732
RightHand 16.512982 -0.000000 19.800210
RightHandThumb1 -24.326973 -0.000000 -32.862282
LeftUpLeg -45.971048 19.169316 27.529403
LeftLeg 30.974463 -0.000000 -0.000000
LeftFoot -14.061419 12.512133 4.621816
LeftToeBase -0.799630 -0.000000 0.000000
RightUpLeg -144.368539 -22.632891 16.802574
RightLeg 118.605445 -0.000000 -0.000000
RightFoot 43.805766 -3.954164 1.669231
RightToeBase 47.563322 -0.000000 -0.000000
